<svg width="136" height="136" viewBox="0 0 136 136" fill="none" xmlns="http://www.w3.org/2000/svg">
<path d="M68 129.667C102.058 129.667 129.667 102.058 129.667 68C129.667 33.9424 102.058 6.33334 68 6.33334C33.9424 6.33334 6.33331 33.9424 6.33331 68C6.33331 102.058 33.9424 129.667 68 129.667Z" fill="#57B6EB"/>
<path d="M40.25 68L58.75 86.5L95.75 49.5M129.667 68C129.667 102.058 102.058 129.667 68 129.667C33.9424 129.667 6.33331 102.058 6.33331 68C6.33331 33.9424 33.9424 6.33334 68 6.33334C102.058 6.33334 129.667 33.9424 129.667 68Z" stroke="#F4FBFE" stroke-width="12.3333" stroke-linecap="round" stroke-linejoin="round"/>
</svg>
